# xmcd
#
# Track frame offsets: 
#        150
#        17162
#        37515
#        55050
#        74497
#        89742
#        110395
#        129837
#        150162
#        171237
#
# Disc length: 2519 seconds
#
# Revision: 1
# Processed by: cddbd v1.5.2PL0 Copyright (c) Steve Scherf et al.
# Submitted via: ExactAudioCopy v0.99pb5
#
DISCID=7309d50a
DTITLE=Ruby Turner - The Motown Songbook
DYEAR=1988
DGENRE=Soul
TTITLE0=Nowhere To Run (Nowhere To Hide)
TTITLE1=Baby I Need Your Lovin'
TTITLE2=What Becomes Of The Broken Hearted
TTITLE3=The Tracks Of My Tears
TTITLE4=Signed, Sealed, Delivered I'm Yours
TTITLE5=Just My Imagination (Running Away With Me)
TTITLE6=Ooo Baby Baby
TTITLE7=Every Little Bit Hurts
TTITLE8=How Sweet It Is (To Be Loved By You)
TTITLE9=Until You Come Back To Me (That's What I'm Gonna Do)
EXTD=Jive Records CHIP58
EXTT0=
EXTT1=
EXTT2=
EXTT3=
EXTT4=
EXTT5=
EXTT6=
EXTT7=
EXTT8=
EXTT9=
PLAYORDER=
